HIERARCHY
ROOT hip
{
	OFFSET 0.000000 0.000000 0.000000 
	CHANNELS 6 Xposition Yposition Zposition Xrotation Zrotation Yrotation
	JOINT abdomen
	{
		OFFSET 0.000000 3.402643 0.000000 
		CHANNELS 3 Xrotation Zrotation Yrotation
		JOINT chest
		{
			OFFSET 0.000000 8.438565 -0.680529 
			CHANNELS 3 Xrotation Zrotation Yrotation
			JOINT neck
			{
				OFFSET 0.000000 10.207942 -0.272212 
				CHANNELS 3 Xrotation Zrotation Yrotation
				JOINT head
				{
					OFFSET 0.000000 3.130431 0.000000 
					CHANNELS 3 Xrotation Zrotation Yrotation
					End Site
					{
						OFFSET 0.000000 3.130435 0.000000 
					}
				}
			}
			JOINT lCollar
			{
				OFFSET 3.470700 6.669187 -0.816635 
				CHANNELS 3 Yrotation Zrotation Xrotation
				JOINT lShldr
				{
					OFFSET 3.198488 0.000000 0.000000 
					CHANNELS 3 Zrotation Yrotation Xrotation
					JOINT lForeArm
					{
						OFFSET 10.139888 0.000000 0.000000 
						CHANNELS 3 Yrotation Zrotation Xrotation
						JOINT lHand
						{
							OFFSET 8.370511 0.000000 0.000000 
							CHANNELS 3 Zrotation Yrotation Xrotation
							End Site
							{
								OFFSET 4.083176 0.000000 0.000000 
							}
						}
					}
				}
			}
			JOINT rCollar
			{
				OFFSET -3.470700 6.669187 -0.816635 
				CHANNELS 3 Yrotation Zrotation Xrotation
				JOINT rShldr
				{
					OFFSET -3.198488 0.000000 0.000000 
					CHANNELS 3 Zrotation Yrotation Xrotation
					JOINT rForeArm
					{
						OFFSET -10.139888 0.000000 0.000000 
						CHANNELS 3 Yrotation Zrotation Xrotation
						JOINT rHand
						{
							OFFSET -8.370511 0.000000 0.000000 
							CHANNELS 3 Zrotation Yrotation Xrotation
							End Site
							{
								OFFSET -4.083176 0.000000 0.000000 
							}
						}
					}
				}
			}
		}
	}
	JOINT lThigh
	{
		OFFSET 5.308129 -1.633274 1.361059 
		CHANNELS 3 Xrotation Zrotation Yrotation
		JOINT lShin
		{
			OFFSET -2.041588 -20.007561 0.000000 
			CHANNELS 3 Xrotation Zrotation Yrotation
			JOINT lFoot
			{
				OFFSET 0.000000 -19.190928 -1.224953 
				CHANNELS 3 Xrotation Yrotation Zrotation
				End Site
				{
					OFFSET 0.000000 -2.449906 4.627600 
				}
			}
		}
	}
	JOINT rThigh
	{
		OFFSET -5.308129 -1.633274 1.361059 
		CHANNELS 3 Xrotation Zrotation Yrotation
		JOINT rShin
		{
			OFFSET 2.041588 -20.007561 0.000000 
			CHANNELS 3 Xrotation Zrotation Yrotation
			JOINT rFoot
			{
				OFFSET 0.000000 -19.190928 -1.224953 
				CHANNELS 3 Xrotation Yrotation Zrotation
				End Site
				{
					OFFSET 0.000000 -2.449906 4.627600 
				}
			}
		}
	}
}
MOTION
Frames: 13
Frame Time: 0.033333
-18.666161 52.850651 -14.109836 -6.670071 -10.739082 -7.794670 0.000000 0.000000 0.000000 18.199741 5.735304 7.077469 25.957916 -3.654358 -0.382171 -18.370125 2.611450 5.097438 7.119287 -3.068690 24.738222 -67.281059 1.698495 -13.426597 -56.092709 -23.930029 14.916883 0.916642 14.941696 -2.993671 -11.982187 1.116830 24.836824 44.920475 7.630947 59.134167 63.672642 -25.366301 19.654886 12.915173 -28.270451 -23.635069 12.465469 15.778062 23.033936 29.410374 -2.335931 -1.629003 7.408180 -2.534305 -15.180984 9.213166 5.495066 2.591602 32.858177 1.361142 2.285462 4.155200 -4.594487 30.497252 
-18.647049 52.974049 -13.610088 -7.663996 -11.839696 -7.795092 0.000000 0.000000 0.000000 19.219446 6.726094 7.261090 25.651840 -3.874453 -0.398863 -17.714527 2.591435 5.799374 7.390449 -3.375914 24.777769 -67.775269 2.351638 -13.059826 -55.589962 -23.745892 14.905175 1.533188 14.196923 -3.348603 -11.689325 1.827681 24.989899 43.184265 7.489728 58.510017 64.631889 -24.410824 20.329739 12.662284 -28.741781 -23.671904 14.480416 16.923048 23.492266 29.732506 -2.736234 -1.737521 6.618370 -3.490582 -16.802896 11.383979 6.219438 2.767522 32.110920 1.253680 2.187706 4.694582 -3.828471 30.610168 
-18.607765 53.013077 -13.289042 -7.967996 -12.324981 -7.763219 0.000000 0.000000 0.000000 19.516876 7.230351 7.359576 25.450975 -3.725302 -0.382505 -18.042444 2.383217 5.572501 7.116796 -3.849215 24.824684 -67.726616 3.294410 -12.723431 -55.885788 -23.516378 14.788461 1.570300 14.072013 -4.168191 -11.778420 1.731038 24.971357 43.163422 7.537276 58.469704 65.092316 -24.685116 20.888906 15.044231 -29.632093 -24.824930 15.182239 17.429863 23.729050 30.098980 -2.931836 -1.791083 5.721053 -3.723607 -17.206629 12.054585 6.549963 2.860662 32.221584 1.141250 2.172969 4.553097 -3.852405 30.067009 
-18.507853 52.994987 -13.018678 -7.944783 -12.219172 -7.508450 0.000000 0.000000 0.000000 19.387392 7.199144 7.360021 25.298548 -3.217468 -0.345241 -18.379099 1.496932 5.302438 7.434636 -3.326397 24.776772 -68.461441 3.152308 -12.619428 -54.958427 -24.530775 15.248999 1.994872 14.489891 -3.351619 -11.449524 2.201293 25.000000 42.788441 6.816256 58.879414 64.496872 -25.355728 20.486332 13.177507 -28.268171 -24.658327 15.105365 17.206934 23.613083 30.433367 -2.809424 -1.773009 4.974971 -3.618824 -16.982365 12.039762 6.268960 2.791600 32.729988 1.107174 2.199513 4.026808 -3.827917 29.797861 
-18.298435 52.933067 -12.708591 -7.898344 -11.659015 -6.755017 0.000000 0.000000 0.000000 19.296532 6.686032 7.246508 24.939430 -2.039485 -0.256963 -18.622499 1.432886 4.702575 5.653538 -3.221087 24.719786 -69.268509 4.260475 -12.056972 -55.358185 -24.031456 15.022700 1.917098 15.649572 -2.444063 -12.293554 2.288703 25.000000 43.145992 6.831050 59.012398 64.306709 -26.478537 20.636919 16.187342 -28.507889 -26.406738 14.463790 16.382879 23.239384 31.233665 -2.322083 -1.699912 4.224443 -3.531981 -16.116302 11.657702 5.126076 2.437090 33.835236 1.595020 2.423692 3.537652 -3.317828 30.659945 
-18.114401 52.864498 -12.525405 -7.719029 -11.305568 -6.144722 0.000000 0.000000 0.000000 19.151575 6.507084 7.205967 24.745716 -1.501315 -0.215795 -18.448668 1.582994 4.348053 5.043768 -2.755043 24.668732 -70.276169 4.104946 -11.917608 -54.349060 -24.428080 15.264030 2.390409 16.178402 -0.581781 -12.776154 1.934823 25.000000 43.778904 6.702754 59.361065 63.478458 -26.491262 19.812057 14.384126 -27.734774 -25.932327 13.491910 15.955584 23.065710 32.431736 -1.883080 -1.694823 3.634082 -3.640408 -15.359005 11.001423 4.217539 2.185835 34.987885 2.223905 2.683301 3.594657 -2.842640 32.082607 
-17.921804 52.793625 -12.370627 -7.464856 -11.108609 -5.703057 0.000000 0.000000 0.000000 19.158239 6.673134 7.243749 24.412012 -1.373451 -0.209663 -18.881699 1.022308 3.384300 4.989802 -2.710552 24.669783 -70.629829 3.715958 -11.969601 -53.212841 -25.253830 15.678598 2.872875 16.287239 1.116731 -12.917447 1.530353 24.942913 44.313793 6.309522 59.866497 62.979897 -27.212799 19.526146 13.966426 -27.479548 -26.295536 12.428315 15.721336 22.989832 33.747955 -1.497267 -1.682045 2.940193 -3.780159 -14.794079 10.076857 3.534800 2.010108 36.395451 2.756376 2.915681 3.814608 -2.576606 33.484776 
-17.672680 52.757992 -12.119865 -7.743162 -11.091905 -5.456367 0.000000 0.000000 0.000000 19.717348 6.862214 7.257788 24.315716 -1.491849 -0.215208 -18.714823 0.928404 3.592800 4.517973 -2.953417 24.679050 -71.115623 4.123677 -11.746731 -52.856869 -25.030352 15.629961 3.013783 16.472366 1.786334 -12.657646 1.643412 24.964750 44.284138 6.018200 60.068569 62.835335 -28.427801 19.715822 15.260288 -27.129528 -27.588202 12.312359 15.643517 22.955301 34.928478 -1.546379 -1.752195 1.980574 -3.715521 -14.518882 9.391852 2.977980 1.848425 38.366890 2.980441 3.171862 4.072071 -2.458463 34.546169 
-17.498217 52.729748 -11.908025 -8.296390 -10.941806 -5.466353 0.000000 0.000000 0.000000 20.468708 6.710516 7.175217 24.443222 -1.531808 -0.219562 -19.202517 0.846542 3.918864 4.483083 -3.125500 24.689819 -71.402275 4.433117 -11.597403 -52.784279 -24.695028 15.510289 2.940961 16.829857 1.441628 -11.636151 1.974825 25.000000 44.204525 5.454390 60.473026 62.260323 -29.834833 19.516922 15.656617 -26.291380 -28.244888 12.722761 15.487206 22.889378 35.746513 -1.859051 -1.882868 1.275459 -3.529217 -14.507542 9.008238 2.469692 1.709292 40.209698 2.921117 3.321402 4.048079 -1.508882 36.016224 
-17.332735 52.588924 -11.751459 -8.369560 -10.350015 -5.458613 0.000000 0.000000 0.000000 20.627514 6.282431 7.066609 24.787367 -1.693050 -0.234037 -19.103924 0.717614 3.871217 4.197022 -2.991615 24.674208 -71.694893 4.654092 -11.477042 -52.731575 -24.576872 15.477270 2.743865 17.179455 0.602784 -11.378671 2.337793 25.000000 43.773342 5.291563 60.443459 62.518150 -30.365509 19.894348 16.122168 -27.112570 -28.459444 11.835380 15.029128 22.703213 37.587666 -1.752253 -1.967886 0.382086 -3.642337 -14.650058 7.750854 1.552348 1.451074 42.856831 2.969255 3.596286 3.597358 -1.109768 35.322807 
-17.170778 52.193344 -11.632168 -7.747034 -9.213483 -4.963579 0.000000 0.000000 0.000000 20.204184 5.491942 6.900068 24.537727 -1.981198 -0.248098 -19.305470 1.363582 3.936261 3.686185 -2.294948 24.636610 -72.119354 4.545518 -11.434676 -52.849644 -24.849840 15.570321 2.706436 17.441332 0.181035 -11.838019 0.779041 24.759724 45.912388 5.700276 60.894306 61.810837 -30.649849 19.267262 16.459513 -26.384901 -28.675549 8.149927 14.517784 22.515181 42.395042 -0.698869 -1.956155 -1.254958 -4.802699 -14.822436 4.896251 0.068650 1.058426 47.915127 3.762057 4.245394 2.395251 -2.150466 29.995995 
-17.144304 51.816025 -11.527172 -7.635297 -8.605825 -4.115749 0.000000 0.000000 0.000000 20.270044 5.122767 6.801133 24.243296 -1.904303 -0.245609 -18.554728 0.095579 2.929483 3.310539 -1.606264 24.601084 -72.274963 4.097394 -11.530696 -52.829578 -25.252365 15.716275 2.912490 17.376133 0.550776 -12.689834 0.144965 24.612068 46.475922 5.956480 60.908512 61.790657 -29.906401 19.068426 15.048217 -26.679144 -28.090010 5.116384 14.911242 22.703407 47.114483 0.169002 -2.021301 -2.557239 -6.369273 -14.750051 3.166631 -0.661651 0.866242 52.716591 4.896043 4.964592 1.865708 -1.626158 27.794720 
-17.207293 51.382187 -11.380895 -8.082604 -8.267819 -3.166972 0.000000 0.000000 0.000000 20.633141 4.827123 6.717307 24.338720 -1.751371 -0.234530 -18.940138 1.004446 2.894236 3.211676 -0.919167 24.567184 -72.131798 3.506965 -11.729616 -52.737103 -25.675409 15.886366 3.265308 17.408447 1.104558 -13.283175 0.424382 24.670614 45.975063 6.157497 60.589767 62.486347 -29.845829 19.738209 16.308424 -26.909286 -29.071966 2.518203 16.022991 23.133678 52.360542 0.919848 -2.082691 -3.883778 -8.273440 -14.658550 2.321998 -0.965380 0.814460 57.876217 6.329051 5.746706 2.191535 -0.462855 25.500393 
